<?xml version="1.0" standalone="no"?>
<!DOCTYPE svg PUBLIC "-//W3C//DTD SVG 20010904//EN"
 "http://www.w3.org/TR/2001/REC-SVG-20010904/DTD/svg10.dtd">
<svg version="1.0" xmlns="http://www.w3.org/2000/svg"
 width="600.000000pt" height="600.000000pt" viewBox="0 0 600.000000 600.000000"
 preserveAspectRatio="xMidYMid meet">
<metadata>
Created by potrace 1.11, written by Peter Selinger 2001-2013
</metadata>
<g transform="translate(0.000000,600.000000) scale(0.100000,-0.100000)"
fill="#000000" stroke="none">
<path d="M2220 3754 c-89 -16 -218 -52 -295 -82 -114 -44 -180 -77 -390 -198
-472 -271 -655 -369 -795 -424 -71 -28 -99 -33 -171 -34 -77 -1 -89 2 -126 26
-25 17 -49 44 -63 73 -20 40 -22 58 -18 148 3 90 7 108 33 155 51 94 113 132
215 132 25 0 58 -7 74 -15 15 -8 46 -15 67 -15 35 0 39 3 39 25 0 15 -7 28
-17 32 -10 4 -22 12 -28 19 -5 6 -39 22 -75 35 -54 19 -85 24 -181 24 l-116 0
-87 -44 c-120 -62 -199 -158 -250 -306 -37 -103 -43 -202 -22 -324 43 -245
182 -441 391 -548 179 -91 396 -154 626 -180 127 -15 167 -16 291 -5 355 29
682 97 973 201 299 107 427 174 605 320 41 33 78 61 83 61 5 0 54 -35 110 -78
173 -133 292 -199 503 -278 238 -90 565 -169 802 -194 157 -17 550 -18 657 -1
101 15 334 78 409 111 104 44 242 134 306 199 74 75 165 216 193 299 47 139
45 338 -5 456 -54 128 -185 269 -304 327 -64 32 -75 34 -169 34 -90 0 -106 -3
-156 -28 -75 -38 -155 -113 -164 -154 -6 -31 -5 -33 20 -33 16 0 43 14 68 35
52 45 95 57 158 45 68 -13 122 -53 169 -122 44 -66 54 -103 55 -198 0 -104
-21 -137 -125 -190 -67 -35 -193 -39 -280 -10 -138 46 -210 86 -641 363 -299
191 -479 281 -622 311 -39 9 -134 21 -210 28 -177 15 -290 2 -449 -51 -125
-42 -184 -70 -272 -129 l-58 -40 -92 56 c-130 79 -228 121 -331 143 -88 19
-286 32 -335 23z"/>
</g>
</svg>
